<?xml version="1.0" encoding="UTF-8" standalone="no"?>
<svg
   xmlns:dc="http://purl.org/dc/elements/1.1/"
   xmlns:cc="http://creativecommons.org/ns#"
   xmlns:rdf="http://www.w3.org/1999/02/22-rdf-syntax-ns#"
   xmlns:svg="http://www.w3.org/2000/svg"
   xmlns="http://www.w3.org/2000/svg"
   xmlns:sodipodi="http://sodipodi.sourceforge.net/DTD/sodipodi-0.dtd"
   xmlns:inkscape="http://www.inkscape.org/namespaces/inkscape"
   aria-hidden="true"
   focusable="false"
   data-prefix="fas"
   data-icon="database"
   class="svg-inline--fa fa-database fa-w-14"
   role="img"
   viewBox="0 0 448 512"
   version="1.1"
   id="svg4"
   sodipodi:docname="database-solid.svg"
   inkscape:version="1.0 (4035a4fb49, 2020-05-01)">
  <metadata
     id="metadata10">
    <rdf:RDF>
      <cc:Work
         rdf:about="">
        <dc:format>image/svg+xml</dc:format>
        <dc:type
           rdf:resource="http://purl.org/dc/dcmitype/StillImage" />
      </cc:Work>
    </rdf:RDF>
  </metadata>
  <defs
     id="defs8" />
  <sodipodi:namedview
     inkscape:document-rotation="0"
     pagecolor="#ffffff"
     bordercolor="#666666"
     borderopacity="1"
     objecttolerance="10"
     gridtolerance="10"
     guidetolerance="10"
     inkscape:pageopacity="0"
     inkscape:pageshadow="2"
     inkscape:window-width="995"
     inkscape:window-height="480"
     id="namedview6"
     showgrid="false"
     inkscape:zoom="0.41503906"
     inkscape:cx="269.33807"
     inkscape:cy="250.5524"
     inkscape:window-x="273"
     inkscape:window-y="89"
     inkscape:window-maximized="0"
     inkscape:current-layer="svg4" />
  <path
     fill="currentColor"
     d="M 448,73.142999 V 118.857 C 448,159.143 347.667,192 224,192 100.333,192 0,159.143 0,118.857 V 73.142999 C 0,32.857 100.333,0 224,0 347.667,0 448,32.857 448,73.142999 Z M 448,176 V 278.857 C 448,319.143 347.667,352 224,352 100.333,352 0,319.143 0,278.857 V 176 c 48.125,33.143 136.208,48.572 224,48.572 87.792,0 175.874,-15.429 224,-48.572 z m 0,160 V 438.857 C 448,479.143 347.667,512 224,512 100.333,512 0,479.143 0,438.857 V 336 c 48.125,33.143 136.208,48.572 224,48.572 87.792,0 175.874,-15.429 224,-48.572 z"
     id="path2"
     style="fill:#791111;stroke-width:1;fill-opacity:1" />
</svg>
