<?xml version="1.0" encoding="UTF-8" standalone="no"?>
<svg
   xmlns:dc="http://purl.org/dc/elements/1.1/"
   xmlns:cc="http://creativecommons.org/ns#"
   xmlns:rdf="http://www.w3.org/1999/02/22-rdf-syntax-ns#"
   xmlns:svg="http://www.w3.org/2000/svg"
   xmlns="http://www.w3.org/2000/svg"
   xmlns:sodipodi="http://sodipodi.sourceforge.net/DTD/sodipodi-0.dtd"
   xmlns:inkscape="http://www.inkscape.org/namespaces/inkscape"
   aria-hidden="true"
   focusable="false"
   data-prefix="fas"
   data-icon="gamepad"
   class="svg-inline--fa fa-gamepad fa-w-20"
   role="img"
   viewBox="0 0 640 512"
   version="1.1"
   id="svg4"
   sodipodi:docname="gamepad-solid.svg"
   inkscape:version="1.0 (4035a4fb49, 2020-05-01)">
  <metadata
     id="metadata10">
    <rdf:RDF>
      <cc:Work
         rdf:about="">
        <dc:format>image/svg+xml</dc:format>
        <dc:type
           rdf:resource="http://purl.org/dc/dcmitype/StillImage" />
      </cc:Work>
    </rdf:RDF>
  </metadata>
  <defs
     id="defs8" />
  <sodipodi:namedview
     inkscape:document-rotation="0"
     pagecolor="#ffffff"
     bordercolor="#666666"
     borderopacity="1"
     objecttolerance="10"
     gridtolerance="10"
     guidetolerance="10"
     inkscape:pageopacity="0"
     inkscape:pageshadow="2"
     inkscape:window-width="1132"
     inkscape:window-height="638"
     id="namedview6"
     showgrid="false"
     inkscape:zoom="0.29347694"
     inkscape:cx="345.11317"
     inkscape:cy="206.62897"
     inkscape:window-x="0"
     inkscape:window-y="0"
     inkscape:window-maximized="0"
     inkscape:current-layer="svg4" />
  <path
     fill="currentColor"
     d="M 480.07,96 H 160 a 160,160 0 1 0 114.24,272 h 91.52 A 160,160 0 1 0 480.07,96 Z M 248,268 a 12,12 0 0 1 -12,12 h -52 v 52 a 12,12 0 0 1 -12,12 H 148 A 12,12 0 0 1 136,332 V 280 H 83.999999 a 12,12 0 0 1 -12,-12 v -24 a 12,12 0 0 1 12,-12 H 136 v -52 a 12,12 0 0 1 12,-12 h 24 a 12,12 0 0 1 12,12 v 52 h 52 a 12,12 0 0 1 12,12 z m 216,76 a 40,40 0 1 1 40,-40 40,40 0 0 1 -40,40 z m 64,-96 a 40,40 0 1 1 40,-40 40,40 0 0 1 -40,40 z"
     id="path2"
     style="fill:#791111;stroke-width:1;fill-opacity:1" />
</svg>
