<?xml version="1.0" encoding="UTF-8" standalone="no"?>
<!-- Uploaded to: SVG Repo, www.svgrepo.com, Generator: SVG Repo Mixer Tools -->

<svg
   width="800px"
   height="800px"
   viewBox="-4 0 264 264"
   version="1.1"
   preserveAspectRatio="xMidYMid"
   id="svg1"
   sodipodi:docname="laravel-svgrepo-com.svg"
   inkscape:version="1.4 (e7c3feb100, 2024-10-09)"
   xmlns:inkscape="http://www.inkscape.org/namespaces/inkscape"
   xmlns:sodipodi="http://sodipodi.sourceforge.net/DTD/sodipodi-0.dtd"
   xmlns="http://www.w3.org/2000/svg"
   xmlns:svg="http://www.w3.org/2000/svg">
  <defs
     id="defs1" />
  <sodipodi:namedview
     id="namedview1"
     pagecolor="#ffffff"
     bordercolor="#000000"
     borderopacity="0.25"
     inkscape:showpageshadow="2"
     inkscape:pageopacity="0.0"
     inkscape:pagecheckerboard="0"
     inkscape:deskcolor="#d1d1d1"
     inkscape:zoom="0.93625"
     inkscape:cx="399.46595"
     inkscape:cy="400"
     inkscape:window-width="1707"
     inkscape:window-height="995"
     inkscape:window-x="0"
     inkscape:window-y="0"
     inkscape:window-maximized="1"
     inkscape:current-layer="svg1" />
  <g
     id="g1">
    <path
       d="M255.855641,59.619717 C255.950565,59.9710596 256,60.3333149 256,60.6972536 L256,117.265345 C256,118.743206 255.209409,120.108149 253.927418,120.843385 L206.448786,148.178786 L206.448786,202.359798 C206.448786,203.834322 205.665123,205.195421 204.386515,205.937838 L105.27893,262.990563 C105.05208,263.119455 104.804608,263.201946 104.557135,263.289593 C104.464333,263.320527 104.376687,263.377239 104.278729,263.403017 C103.585929,263.58546 102.857701,263.58546 102.164901,263.403017 C102.051476,263.372083 101.948363,263.310215 101.840093,263.26897 C101.613244,263.186479 101.376082,263.1143 101.159544,262.990563 L2.07258227,205.937838 C0.7913718,205.201819 0,203.837372 0,202.359798 L0,32.6555248 C0,32.2843161 0.0515567729,31.9234187 0.144358964,31.5728326 C0.175293028,31.454252 0.24747251,31.3459828 0.288717928,31.2274022 C0.366053087,31.0108638 0.438232569,30.7891697 0.55165747,30.5880982 C0.628992629,30.4540506 0.742417529,30.3457814 0.83521972,30.2220451 C0.953800298,30.0570635 1.06206952,29.8869261 1.20127281,29.7425672 C1.31985339,29.6239866 1.4745237,29.5363401 1.60857131,29.4332265 C1.75808595,29.3094903 1.89213356,29.1754427 2.06227091,29.0774848 L2.06742659,29.0774848 L51.6134853,0.551122364 C52.8901903,-0.183535768 54.4613221,-0.183535768 55.7380271,0.551122364 L105.284086,29.0774848 L105.294397,29.0774848 C105.459379,29.1805983 105.598582,29.3094903 105.748097,29.4280708 C105.882144,29.5311844 106.031659,29.6239866 106.15024,29.7374115 C106.294599,29.8869261 106.397712,30.0570635 106.521448,30.2220451 C106.609095,30.3457814 106.727676,30.4540506 106.799855,30.5880982 C106.918436,30.7943253 106.985459,31.0108638 107.06795,31.2274022 C107.109196,31.3459828 107.181375,31.454252 107.212309,31.5779883 C107.307234,31.9293308 107.355765,32.2915861 107.356668,32.6555248 L107.356668,138.651094 L148.643332,114.878266 L148.643332,60.6920979 C148.643332,60.3312005 148.694889,59.9651474 148.787691,59.619717 C148.823781,59.4959808 148.890804,59.3877116 148.93205,59.269131 C149.014541,59.0525925 149.08672,58.8308984 149.200145,58.629827 C149.27748,58.4957794 149.390905,58.3875102 149.478552,58.2637739 C149.602288,58.0987922 149.705401,57.9286549 149.84976,57.7842959 C149.968341,57.6657153 150.117856,57.5780688 150.251903,57.4749553 C150.406573,57.351219 150.540621,57.2171714 150.705603,57.1192136 L150.710758,57.1192136 L200.261973,28.5928511 C201.538395,27.8571345 203.110093,27.8571345 204.386515,28.5928511 L253.932573,57.1192136 C254.107866,57.2223271 254.241914,57.351219 254.396584,57.4697996 C254.525476,57.5729132 254.674991,57.6657153 254.793572,57.7791402 C254.93793,57.9286549 255.041044,58.0987922 255.16478,58.2637739 C255.257582,58.3875102 255.371007,58.4957794 255.443187,58.629827 C255.561767,58.8308984 255.628791,59.0525925 255.711282,59.269131 C255.757683,59.3877116 255.824707,59.4959808 255.855641,59.619717 Z M247.740605,114.878266 L247.740605,67.8378666 L230.402062,77.8192579 L206.448786,91.6106946 L206.448786,138.651094 L247.745761,114.878266 L247.740605,114.878266 Z M198.194546,199.97272 L198.194546,152.901386 L174.633101,166.357704 L107.351512,204.757188 L107.351512,252.27191 L198.194546,199.97272 Z M8.25939501,39.7961379 L8.25939501,199.97272 L99.0921175,252.266755 L99.0921175,204.762344 L51.6392637,177.906421 L51.6237967,177.89611 L51.603174,177.885798 C51.443348,177.792996 51.3093004,177.658949 51.1597857,177.545524 C51.0308938,177.44241 50.8813791,177.359919 50.7679542,177.246494 L50.7576429,177.231027 C50.6235953,177.102135 50.5307931,176.942309 50.4173682,176.79795 C50.3142546,176.658747 50.1905184,176.540167 50.1080276,176.395808 L50.1028719,176.380341 C50.0100697,176.22567 49.9533572,176.040066 49.8863334,175.864773 C49.8193096,175.710103 49.7316631,175.565744 49.6904177,175.400762 L49.6904177,175.395606 C49.6388609,175.19969 49.6285496,174.993463 49.6079269,174.792392 C49.5873041,174.637722 49.5460587,174.483051 49.5460587,174.328381 L49.5460587,174.31807 L49.5460587,63.5689658 L25.5979377,49.7723734 L8.25939501,39.8012935 L8.25939501,39.7961379 Z M53.6809119,8.89300821 L12.3994039,32.6555248 L53.6706006,56.4180414 L94.9469529,32.6503692 L53.6706006,8.89300821 L53.6809119,8.89300821 Z M75.1491521,157.19091 L99.0972731,143.404629 L99.0972731,39.7961379 L81.7587304,49.7775291 L57.8054537,63.5689658 L57.8054537,167.177457 L75.1491521,157.19091 Z M202.324244,36.934737 L161.047891,60.6972536 L202.324244,84.4597702 L243.59544,60.6920979 L202.324244,36.934737 Z M198.194546,91.6106946 L174.24127,77.8192579 L156.902727,67.8378666 L156.902727,114.878266 L180.850848,128.664547 L198.194546,138.651094 L198.194546,91.6106946 Z M103.216659,197.616575 L163.759778,163.052915 L194.023603,145.781396 L152.778185,122.034346 L105.289242,149.374903 L62.0073307,174.292291 L103.216659,197.616575 Z"
       fill="#FF2D20"
       id="path1" />
  </g>
  <path
     style="fill:#791111;stroke-width:1.06809"
     d="M 168.75834,710.0036 C 32.919942,631.7489 15.814352,621.60849 14.15031,618.35005 12.380601,614.88469 12.293823,600.61805 12.548173,354.95143 12.815154,97.086184 12.832466,95.19619 14.953271,92.378081 16.250806,90.653927 47.261486,72.172971 93.942961,45.303815 157.56634,8.6831526 171.48211,1.0680908 174.77938,1.0680908 c 3.29661,0 17.1079,7.5542293 80.15583,43.8420762 41.89511,24.113142 77.37454,45.031889 78.84316,46.486103 l 2.67023,2.644028 0.53404,163.387602 0.53405,163.38761 62.7265,-36.04193 62.72651,-36.04194 0.0238,-83.68033 c 0.0267,-93.65402 -0.54304,-86.98305 7.8782,-92.24883 5.73275,-3.58466 144.3364,-83.307208 148.83491,-85.607391 1.88004,-0.961304 4.55186,-1.747826 5.93738,-1.747826 2.62472,0 153.30582,86.097567 157.55152,90.023257 1.33164,1.23126 2.91728,3.9497 3.52365,6.04095 0.72968,2.5165 0.99449,33.12215 0.7831,90.50675 -0.31638,85.88933 -0.34027,86.73282 -2.54121,89.71963 -1.45908,1.98006 -27.12625,17.36688 -74.76636,44.82055 l -72.54452,41.80539 -0.53405,85.00652 -0.53404,85.0065 -2.67023,2.59496 c -1.46862,1.42723 -70.44058,41.62252 -153.27103,89.32286 -113.51804,65.37271 -151.65279,86.84743 -154.87316,87.21331 -4.04371,0.45944 -12.44676,-4.22375 -157.00935,-87.50434 z M 312.41656,692.26495 V 619.7769 l -68.62484,-38.80505 c -80.84349,-45.71431 -77.00151,-43.45973 -78.88614,-46.29247 -1.25026,-1.87924 -1.57292,-29.40509 -2.02173,-172.47205 L 162.3498,191.9714 100.44869,156.33283 C 66.403083,136.73161 38.164394,120.69426 37.696051,120.69426 c -0.468343,0 -0.730335,109.37401 -0.582203,243.05336 l 0.26933,243.05337 136.715622,78.86514 c 75.19359,43.37581 137.0761,78.91502 137.51669,78.976 0.44058,0.061 0.80107,-32.50875 0.80107,-72.37718 z m 163.48364,-6.79941 137.71796,-79.28747 v -71.9387 -71.93869 l -5.07343,2.82546 c -2.79039,1.55401 -65.031,37.04236 -138.31247,78.86302 l -133.23904,76.03754 -0.005,72.36315 c -0.003,39.79974 0.26462,72.36315 0.59451,72.36315 0.32989,0 62.57288,-35.67936 138.31776,-79.28746 z M 463.22309,520.581 c 75.77828,-43.23986 137.37305,-78.97122 136.87727,-79.403 -0.49579,-0.43179 -28.69855,-16.75864 -62.67281,-36.28189 -37.67568,-21.65027 -62.40878,-35.25224 -63.40538,-34.86981 -3.60121,1.38191 -274.82223,157.96758 -274.38023,158.40959 0.96197,0.96197 124.02033,70.60428 124.89601,70.68229 0.49855,0.0444 62.90686,-35.29732 138.68514,-78.53718 z M 250.32074,471.05431 312.41656,435.29955 V 277.9969 c 0,-86.51645 -0.36049,-157.29049 -0.80107,-157.27564 -0.44059,0.0149 -28.67824,16.09005 -62.75034,35.72266 l -61.94926,35.69567 -0.27056,157.69195 c -0.15195,88.56464 0.13497,157.53536 0.65452,157.33475 0.50878,-0.19646 28.86818,-16.44686 63.02089,-36.11198 z m 363.25543,-122.05565 -0.042,-71.8291 -56.74166,-32.57677 c -31.2079,-17.91722 -59.54682,-34.16669 -62.97536,-36.10992 l -6.23371,-3.53315 v 71.93932 71.93931 l 62.21629,35.91227 c 34.21896,19.75176 62.57677,35.95163 63.01736,35.99972 0.44059,0.0481 0.78217,-32.23567 0.75908,-71.74168 z m 87.34856,35.43214 62.20644,-35.69916 0.01,-71.85462 0.01,-71.85462 -3.61975,1.89467 c -1.99087,1.04208 -30.3416,17.27519 -63.00162,36.07358 l -59.38187,34.17891 -0.0157,71.89214 c -0.009,39.54068 0.34474,71.70677 0.78532,71.4802 0.44059,-0.22657 28.79397,-16.47656 63.00751,-36.1111 z m -13.0989,-163.81584 c 34.05855,-19.6281 62.0501,-36.08118 62.20345,-36.56241 0.15334,-0.48124 -27.8667,-17.06939 -62.26675,-36.86258 l -62.54557,-35.9876 -62.14119,35.78548 c -34.17766,19.68201 -62.47403,36.11675 -62.88082,36.52164 -0.63101,0.62804 123.51483,72.86783 125.13021,72.8126 0.31682,-0.0108 28.44212,-16.07904 62.50067,-35.70713 z M 238.18425,135.19803 C 271.66889,115.93599 299.42754,99.840479 299.87012,99.43023 300.57564,98.776257 178.44424,27.701 175.31108,26.942191 173.86607,26.592229 50.446196,97.471793 50.032536,98.889182 49.586013,100.41918 172.70567,170.92283 175.16689,170.54653 c 1.1749,-0.17962 29.53271,-16.08645 63.01736,-35.3485 z"
     id="path2"
     transform="matrix(0.33,0,0,0.33,-4,0)" />
</svg>
