<?xml version="1.0" encoding="UTF-8" standalone="no"?>
<svg
   xmlns:dc="http://purl.org/dc/elements/1.1/"
   xmlns:cc="http://creativecommons.org/ns#"
   xmlns:rdf="http://www.w3.org/1999/02/22-rdf-syntax-ns#"
   xmlns:svg="http://www.w3.org/2000/svg"
   xmlns="http://www.w3.org/2000/svg"
   xmlns:sodipodi="http://sodipodi.sourceforge.net/DTD/sodipodi-0.dtd"
   xmlns:inkscape="http://www.inkscape.org/namespaces/inkscape"
   version="1.1"
   x="0px"
   y="0px"
   viewBox="0 0 1000 1000"
   enable-background="new 0 0 1000 1000"
   xml:space="preserve"
   id="svg9"
   sodipodi:docname="yii.svg"
   inkscape:version="1.0 (4035a4fb49, 2020-05-01)"><defs
   id="defs13" /><sodipodi:namedview
   inkscape:document-rotation="0"
   pagecolor="#ffffff"
   bordercolor="#666666"
   borderopacity="1"
   objecttolerance="10"
   gridtolerance="10"
   guidetolerance="10"
   inkscape:pageopacity="0"
   inkscape:pageshadow="2"
   inkscape:window-width="1920"
   inkscape:window-height="1017"
   id="namedview11"
   showgrid="false"
   inkscape:zoom="0.85"
   inkscape:cx="500"
   inkscape:cy="500"
   inkscape:window-x="1912"
   inkscape:window-y="-8"
   inkscape:window-maximized="1"
   inkscape:current-layer="svg9" />
<metadata
   id="metadata2"> Svg Vector Icons : http://www.onlinewebfonts.com/icon <rdf:RDF><cc:Work
     rdf:about=""><dc:format>image/svg+xml</dc:format><dc:type
       rdf:resource="http://purl.org/dc/dcmitype/StillImage" /></cc:Work></rdf:RDF></metadata>
<g
   id="g7"
   style="fill:#791111;fill-opacity:1"><g
     id="_x35_151e0c8492e5103c096af88a51f4333"
     style="fill:#791111;fill-opacity:1"><path
       d="M957.7,254C949,403,841,531.5,723.4,649.8c-6.6-144.3-37.9-236.3-86.9-365.6c-46.3-130.3,89-270,200.2-274.2C903.3,43.9,960.6,133.1,957.7,254z M543.3,546.9c-16.7,29.9-38.6,62.3-67.2,97.8c-60.1,75.7-120.6,199.8-102,345.3c248-27.4,325.5-213.5,332.3-315.8C659.7,603.7,574.9,560.2,543.3,546.9z M43.2,100.4c-8.8,113.8,39.9,283.1,237.3,337c83.1,24.6,141.3,39.8,204.4,62.7c92.2,33.5,164.5,76.2,221.9,150c-10.6-127-62.9-272.4-146.4-385.9C441.2,102.3,234.9,24.6,43.2,100.4z"
       id="path4"
       style="fill:#791111;fill-opacity:1" /></g></g>
</svg>
